<svg width="200" height="200" viewBox="0 0 200 200" xmlns="http://www.w3.org/2000/svg">
  <defs>
    <linearGradient id="shieldGradient" x1="0%" y1="0%" x2="0%" y2="100%">
      <stop offset="0%" style="stop-color:#3B82F6;stop-opacity:1" />
      <stop offset="100%" style="stop-color:#1E40AF;stop-opacity:1" />
    </linearGradient>
    <radialGradient id="glowEffect" cx="50%" cy="50%" r="50%">
      <stop offset="0%" style="stop-color:#FFFFFF;stop-opacity:0.8" />
      <stop offset="100%" style="stop-color:#FFFFFF;stop-opacity:0" />
    </radialGradient>
  </defs>
  
  <!-- Background Circle -->
  <circle cx="100" cy="100" r="90" fill="url(#shieldGradient)"/>
  
  <!-- Shield Shape -->
  <path d="M100 30 L140 50 L140 110 Q140 140 100 160 Q60 140 60 110 L60 50 Z" fill="#FFFFFF"/>
  
  <!-- Inner Shield -->
  <path d="M100 40 L130 55 L130 105 Q130 130 100 145 Q70 130 70 105 L70 55 Z" fill="url(#shieldGradient)"/>
  
  <!-- Checkmark -->
  <path d="M85 100 L95 110 L115 85" stroke="#FFFFFF" stroke-width="6" fill="none" stroke-linecap="round" stroke-linejoin="round"/>
  
  <!-- Quality Indicators -->
  <circle cx="100" cy="100" r="60" fill="url(#glowEffect)" opacity="0.3"/>
  
  <!-- Stars for Excellence -->
  <polygon points="50,60 55,70 65,70 57,77 60,87 50,82 40,87 43,77 35,70 45,70" fill="#FCD34D"/>
  <polygon points="150,60 155,70 165,70 157,77 160,87 150,82 140,87 143,77 135,70 145,70" fill="#FCD34D"/>
  <polygon points="100,170 105,180 115,180 107,187 110,197 100,192 90,197 93,187 85,180 95,180" fill="#FCD34D"/>
  
</svg>
